<svg viewBox="4.5 4 16 16" fill="none" xmlns="http://www.w3.org/2000/svg"><path d="M8.59023 9.87544C8.17902 9.82564 7.8053 10.1186 7.7555 10.5298C7.7057 10.941 7.99869 11.3148 8.4099 11.3646L8.59023 9.87544ZM13.1355 16.0902C13.1853 16.5014 13.559 16.7944 13.9702 16.7446C14.3814 16.6948 14.6744 16.321 14.6246 15.9098L13.1355 16.0902ZM8.76791 7.25577C8.35689 7.20449 7.98211 7.49612 7.93083 7.90715C7.87955 8.31817 8.17118 8.69295 8.58221 8.74423L8.76791 7.25577ZM15.7596 15.9442C15.8254 16.3532 16.2103 16.6313 16.6193 16.5655C17.0282 16.4996 17.3064 16.1147 17.2405 15.7058L15.7596 15.9442ZM8.4099 11.3646C10.885 11.6643 12.8358 13.615 13.1355 16.0902L14.6246 15.9098C14.2419 12.7492 11.7509 10.2582 8.59023 9.87544L8.4099 11.3646ZM8.58221 8.74423C11.288 9.08182 12.9678 10.3165 14.03 11.7241C15.1089 13.1539 15.575 14.7978 15.7596 15.9442L17.2405 15.7058C17.0331 14.4172 16.5042 12.5126 15.2274 10.8206C13.9338 9.1065 11.8971 7.64618 8.76791 7.25577L8.58221 8.74423Z" fill="currentColor"/><path d="M9.00008 16.5C8.73297 16.5 8.48185 16.396 8.29297 16.2071C7.90307 15.8172 7.90307 15.1828 8.29297 14.7929C8.48185 14.604 8.73297 14.5 9.00008 14.5C9.26719 14.5 9.51831 14.604 9.70719 14.7929C10.0971 15.1828 10.0971 15.8172 9.70719 16.2071C9.51831 16.396 9.26719 16.5 9.00008 16.5Z" fill="currentColor"/><path d="M10.0607 14.4393C9.76783 14.1464 9.38395 14 9.00006 14C8.61618 14 8.2323 14.1464 7.9394 14.4393C7.35361 15.0251 7.35361 15.9749 7.9394 16.5607C8.52519 17.1465 9.47493 17.1465 10.0607 16.5607C10.6465 15.9749 10.6465 15.0251 10.0607 14.4393ZM8.64651 15.1465C8.77393 15.019 8.92271 15 9.00006 15C9.07741 15 9.22619 15.019 9.35361 15.1465C9.54856 15.3414 9.54856 15.6586 9.35361 15.8536C9.22619 15.981 9.07741 16 9.00006 16C8.92271 16 8.77393 15.981 8.64651 15.8536C8.45156 15.6586 8.45156 15.3414 8.64651 15.1465Z" fill="currentColor"/><path d="M15.1921 5H9.80807C8.65914 5.00635 7.5598 5.46885 6.75189 6.28576C5.94398 7.10268 5.49368 8.20708 5.50007 9.356V14.644C5.49368 15.7929 5.94398 16.8973 6.75189 17.7142C7.5598 18.5311 8.65914 18.9937 9.80807 19H15.1921C16.341 18.9937 17.4403 18.5311 18.2482 17.7142C19.0562 16.8973 19.5064 15.7929 19.5001 14.644V9.356C19.5064 8.20708 19.0562 7.10268 18.2482 6.28576C17.4403 5.46885 16.341 5.00635 15.1921 5Z" stroke="currentColor" stroke-width="1.2"/></svg>
