<svg xmlns="http://www.w3.org/2000/svg" viewBox="7.5 7.5 81 81"><path d="M14.5 14.5L12 16.9v62.2l2.5 2.4 2.4 2.5h62.2l2.4-2.5 2.5-2.4V16.9l-2.5-2.4-2.4-2.5H16.9l-2.4 2.5zm22.7 10.6C56.7 29.3 72 48 72 67.7V72h-7.7l-.5-6.4C62.3 47.1 46.4 32 28.3 32H24v-4c0-4 0-4 4-4 2.1 0 6.3.5 9.2 1.1zM37 41.6c10.4 3.1 19 15.1 19 26.5 0 3.9 0 3.9-3.9 3.9h-3.8l-.6-5.5c-1.1-10.4-7.8-17.1-18.1-18.2l-5.6-.6v-3.8c0-3.8.1-3.9 3.8-3.9 2.1 0 6.2.7 9.2 1.6zM34 62c1.1 1.1 2 2.9 2 4 0 2.6-3.4 6-6 6s-6-3.4-6-6c0-1.1.9-2.9 2-4s2.9-2 4-2 2.9.9 4 2z"/></svg>
