<svg version="1.0" xmlns="http://www.w3.org/2000/svg" viewBox="7.5 7.5 81 81"><g transform="translate(0,96) scale(0.1,-0.1)" stroke="none"><path d="M145 815 l-25 -24 0 -311 0 -311 25 -24 24 -25 311 0 311 0 24 25 25 24 0 311 0 311 -25 24 -24 25 -311 0 -311 0 -24 -25z m227 -106 c195 -42 348 -229 348 -426 l0 -43 -39 0 -38 0 -5 64 c-15 185 -174 336 -355 336 l-43 0 0 40 c0 40 0 40 40 40 21 0 63 -5 92 -11z m-2 -165 c104 -31 190 -151 190 -265 0 -39 0 -39 -39 -39 l-38 0 -6 55 c-11 104 -78 171 -181 182 l-56 6 0 38 c0 38 1 39 38 39 21 0 62 -7 92 -16z m-30 -204 c11 -11 20 -29 20 -40 0 -26 -34 -60 -60 -60 -26 0 -60 34 -60 60 0 11 9 29 20 40 11 11 29 20 40 20 11 0 29 -9 40 -20z"/></g></svg>
