<svg xmlns="http://www.w3.org/2000/svg" viewBox="-0.5 -0.5 25 25" width="64" height="32" fill="none"><g transform="translate(-12,0)"><path d="M9.3812 2.04327C7.76937 2.50154 6.2485 3.36519 4.97948 4.63421C1.00684 8.60687 1.00684 15.0478 4.97948 19.0205C8.95213 22.9932 15.3931 22.9932 19.3657 19.0205C20.6429 17.7433 21.5095 16.211 21.9654 14.5876M9.5384 2C8.6321 5.39377 9.51018 9.16492 12.1726 11.8274C14.8351 14.4899 18.6063 15.368 22 14.4617" stroke="#000" stroke-width="2.5" stroke-linecap="round" stroke-linejoin="round" /></g><g transform="translate(12,0)"><path d="M17.5 17.5L19 19M20 12H22M6.5 6.5L5 5M17.5 6.5L19 5M6.5 17.5L5 19M2 12H4M12 2V4M12 20V22M16 12C16 14.2091 14.2091 16 12 16C9.79086 16 8 14.2091 8 12C8 9.79086 9.79086 8 12 8C14.2091 8 16 9.79086 16 12Z" stroke="#000" stroke-width="2.5" stroke-linecap="round" stroke-linejoin="round" /></g></svg>
