<svg xmlns="http://www.w3.org/2000/svg" viewBox="4 4 40 40"><path d="M 12.5 6 C 8.9280619 6 6 8.9280619 6 12.5 L 6 35.5 C 6 39.071938 8.9280619 42 12.5 42 L 35.5 42 C 39.071938 42 42 39.071938 42 35.5 L 42 12.5 C 42 8.9280619 39.071938 6 35.5 6 L 12.5 6 z M 12.5 9 L 35.5 9 C 37.450062 9 39 10.549938 39 12.5 L 39 35.5 C 39 37.450062 37.450062 39 35.5 39 L 12.5 39 C 10.549938 39 9 37.450062 9 35.5 L 9 12.5 C 9 10.549938 10.549938 9 12.5 9 z M 13.828125 14 L 21.564453 25.056641 L 13.822266 34 L 15.865234 34 L 22.46875 26.351562 L 27.820312 34 L 34.257812 34 L 26.025391 22.234375 L 33.136719 14 L 31.136719 14 L 25.123047 20.943359 L 20.265625 14 L 13.828125 14 z M 16.935547 15.695312 L 19.498047 15.695312 L 31.150391 32.304688 L 28.587891 32.304688 L 16.935547 15.695312 z"/></svg>
